<svg xmlns="http://www.w3.org/2000/svg" viewBox="0 0 600 200" width="600" height="200">
  <!-- Cloud Symbol -->
  <circle cx="100" cy="100" r="80" fill="none" stroke="#1976d2" stroke-width="8"/>
  <path d="M60 80 C60 70, 70 60, 80 60 C85 55, 95 55, 100 60 C110 55, 120 60, 125 65 C135 65, 140 75, 140 80 C145 80, 150 85, 150 90 C150 100, 140 110, 130 110 L70 110 C60 110, 50 100, 50 90 C50 85, 55 80, 60 80 Z" fill="#1976d2"/>
  <path d="M85 70 L110 70 L100 90 L115 90 L85 120 L95 100 L85 100 L95 80 Z" fill="#4caf50"/>
  
  <!-- Company Name -->
  <text x="200" y="120" font-family="Arial, sans-serif" font-size="48" font-weight="bold" fill="#455a64">Finergy</text>
  <text x="380" y="120" font-family="Arial, sans-serif" font-size="48" font-weight="bold" fill="#1976d2">Cloud</text>
</svg>