<svg width="32" height="32" viewBox="0 0 32 32" xmlns="http://www.w3.org/2000/svg">
  <defs>
    <linearGradient id="primaryGradient" x1="0%" y1="0%" x2="100%" y2="100%">
      <stop offset="0%" style="stop-color:#004d40;stop-opacity:1" />
      <stop offset="100%" style="stop-color:#00bfa5;stop-opacity:1" />
    </linearGradient>
  </defs>
  
  <!-- Background circle -->
  <circle cx="16" cy="16" r="15" fill="url(#primaryGradient)"/>
  
  <!-- Simplified cloud -->
  <g transform="translate(16, 12)">
    <ellipse cx="0" cy="0" rx="6" ry="3" fill="rgba(255,255,255,0.9)"/>
    <circle cx="-3" cy="-1" r="2.5" fill="rgba(255,255,255,0.9)"/>
    <circle cx="3" cy="-1" r="2.5" fill="rgba(255,255,255,0.9)"/>
  </g>
  
  <!-- Simplified turbine -->
  <g transform="translate(16, 16)">
    <circle cx="0" cy="0" r="1.5" fill="#ffffff"/>
    <path d="M 0,-1.5 Q -2,-4 -1,-5 Q 0,-4.5 0,-1.5" fill="#ffffff"/>
    <path d="M 1.3,0.75 Q 3.5,2 2.5,3.5 Q 1.5,2.5 1.3,0.75" fill="#ffffff"/>
    <path d="M -1.3,0.75 Q -3.5,2 -2.5,3.5 Q -1.5,2.5 -1.3,0.75" fill="#ffffff"/>
  </g>
  
  <!-- Simple data bars -->
  <g transform="translate(16, 22)">
    <rect x="-4" y="0" width="1.5" height="3" fill="#00bfa5" rx="0.5"/>
    <rect x="-2" y="-1" width="1.5" height="4" fill="#00bfa5" rx="0.5"/>
    <rect x="0" y="0.5" width="1.5" height="2.5" fill="#00bfa5" rx="0.5"/>
    <rect x="2" y="-1.5" width="1.5" height="4.5" fill="#00bfa5" rx="0.5"/>
  </g>
</svg>