<svg xmlns="http://www.w3.org/2000/svg" viewBox="0 0 300 300" width="300" height="300">
  <!-- Background -->
  <rect width="300" height="300" fill="#f8f9fa" rx="20"/>
  
  <!-- Cloud Shape -->
  <path d="M90 120 C90 110, 100 100, 110 100 C115 95, 125 95, 130 100 C140 95, 150 100, 155 105 C165 105, 170 115, 170 120 C175 120, 180 125, 180 130 C180 140, 170 150, 160 150 L100 150 C90 150, 80 140, 80 130 C80 125, 85 120, 90 120 Z" fill="#1976d2"/>
  
  <!-- Lightning Bolt -->
  <path d="M115 110 L140 110 L130 130 L145 130 L115 160 L125 140 L115 140 L125 120 Z" fill="#4caf50"/>
  
  <!-- Data Analytics Bars -->
  <rect x="100" y="180" width="6" height="20" fill="#00bcd4"/>
  <rect x="110" y="175" width="6" height="25" fill="#00bcd4"/>
  <rect x="120" y="170" width="6" height="30" fill="#00bcd4"/>
  <rect x="130" y="165" width="6" height="35" fill="#00bcd4"/>
  <rect x="140" y="170" width="6" height="30" fill="#00bcd4"/>
  <rect x="150" y="175" width="6" height="25" fill="#00bcd4"/>
  <rect x="160" y="180" width="6" height="20" fill="#00bcd4"/>
  
  <!-- Text -->
  <text x="150" y="230" text-anchor="middle" font-family="Arial, sans-serif" font-size="18" font-weight="bold" fill="#455a64">Finergy</text>
  <text x="150" y="250" text-anchor="middle" font-family="Arial, sans-serif" font-size="18" font-weight="bold" fill="#1976d2">Cloud</text>
</svg>