<svg xmlns="http://www.w3.org/2000/svg" width="48" height="48" viewBox="0 0 48 48">
  <g fill="#000000">
    <!-- Cloud shape -->
    <path d="M24,10C20,10 16.5,12.5 15.5,16C14.5,15.5 13.5,15 12,15C8,15 5,18 5,22C5,26 8,29 12,29L36,29C39,29 42,26 42,23C42,20 39,17 36,17C35.5,17 35,17.2 34.5,17.2C33,14 29,10 24,10Z" fill="#000000"/>
    
    <!-- Wind turbine -->
    <path d="M24,20L24,35M21.5,22.5L26.5,22.5M22.5,24L25.5,24" stroke="#000000" stroke-width="1.5" fill="none"/>
    
    <!-- Data visualization bars -->
    <rect x="15" y="25" width="2" height="5" fill="#000000"/>
    <rect x="18" y="23" width="2" height="7" fill="#000000"/>
    <rect x="21" y="24" width="2" height="6" fill="#000000"/>
  </g>
</svg>