<svg xmlns="http://www.w3.org/2000/svg" viewBox="0 0 64 64" width="64" height="64">
  <!-- Background Circle -->
  <circle cx="32" cy="32" r="30" fill="#1976d2"/>
  
  <!-- Cloud Shape -->
  <path d="M20 28 C20 25, 22 23, 25 23 C26 22, 28 22, 29 23 C31 22, 33 23, 34 24 C36 24, 37 26, 37 28 C38 28, 39 29, 39 30 C39 32, 37 34, 35 34 L22 34 C20 34, 18 32, 18 30 C18 29, 19 28, 20 28 Z" fill="white"/>
  
  <!-- Lightning Bolt -->
  <path d="M26 25 L32 25 L30 30 L34 30 L26 38 L28 33 L26 33 L28 28 Z" fill="#4caf50"/>
  
  <!-- Small Data Bars -->
  <rect x="22" y="42" width="2" height="6" fill="#00bcd4"/>
  <rect x="25" y="40" width="2" height="8" fill="#00bcd4"/>
  <rect x="28" y="38" width="2" height="10" fill="#00bcd4"/>
  <rect x="31" y="40" width="2" height="8" fill="#00bcd4"/>
  <rect x="34" y="42" width="2" height="6" fill="#00bcd4"/>
  <rect x="37" y="40" width="2" height="8" fill="#00bcd4"/>
  <rect x="40" y="42" width="2" height="6" fill="#00bcd4"/>
</svg>