<svg xmlns="http://www.w3.org/2000/svg" viewBox="0 0 400 400" width="400" height="400">
  <!-- Background Circle -->
  <circle cx="200" cy="200" r="190" fill="none" stroke="#1976d2" stroke-width="20"/>
  
  <!-- Cloud Shape -->
  <path d="M120 180 C120 160, 140 140, 160 140 C170 130, 190 130, 200 140 C220 130, 240 140, 250 150 C270 150, 280 170, 280 180 C290 180, 300 190, 300 200 C300 220, 280 240, 260 240 L140 240 C120 240, 100 220, 100 200 C100 190, 110 180, 120 180 Z" fill="#1976d2"/>
  
  <!-- Lightning Bolt (Energy Symbol) -->
  <path d="M180 160 L220 160 L200 200 L230 200 L190 260 L210 220 L180 220 L200 180 Z" fill="#4caf50"/>
  
  <!-- Data Bars (Analytics Symbol) -->
  <rect x="150" y="280" width="8" height="30" fill="#00bcd4"/>
  <rect x="165" y="270" width="8" height="40" fill="#00bcd4"/>
  <rect x="180" y="275" width="8" height="35" fill="#00bcd4"/>
  <rect x="195" y="265" width="8" height="45" fill="#00bcd4"/>
  <rect x="210" y="280" width="8" height="30" fill="#00bcd4"/>
  <rect x="225" y="270" width="8" height="40" fill="#00bcd4"/>
  <rect x="240" y="275" width="8" height="35" fill="#00bcd4"/>
  
  <!-- Company Name -->
  <text x="200" y="350" text-anchor="middle" font-family="Arial, sans-serif" font-size="24" font-weight="bold" fill="#1976d2">FinergyCloud</text>
</svg>