<svg xmlns="http://www.w3.org/2000/svg" viewBox="0 0 512 512" width="512" height="512">
  <!-- FinergyCloud Logo -->
  <defs>
    <linearGradient id="gradient" x1="0%" y1="0%" x2="100%" y2="100%">
      <stop offset="0%" stop-color="#004d40" />
      <stop offset="100%" stop-color="#00bfa5" />
    </linearGradient>
  </defs>
  
  <!-- Background Circle -->
  <circle cx="256" cy="256" r="240" fill="url(#gradient)"/>
  
  <!-- Cloud shape -->
  <path d="M256 150c-30 0-55 20-65 50c-10-2-20-3-30-3c-50 0-90 40-90 90s40 90 90 90h180c40 0 70-30 70-70s-30-70-70-70c-5 0-10 2-15 3c-10-40-45-70-90-90z" 
        fill="#ffffff" stroke="#ffffff" stroke-width="8" stroke-linecap="round" stroke-linejoin="round"/>
  
  <!-- Wind turbine -->
  <path d="M256 220v120M240 240h32M245 250h22" 
        stroke="#00bfa5" stroke-width="10" stroke-linecap="round"/>
  
  <!-- Data visualization bars -->
  <path d="M200 280v50M220 260v70M240 270v60" 
        stroke="#00bfa5" stroke-width="10" stroke-linecap="round"/>
</svg>