<?xml version="1.0" encoding="UTF-8"?>
<svg version="1.1" xmlns="http://www.w3.org/2000/svg" width="48" height="48">
<path d="M0 0 C15.84 0 31.68 0 48 0 C48 15.84 48 31.68 48 48 C32.16 48 16.32 48 0 48 C0 32.16 0 16.32 0 0 Z " fill="#0362AD" transform="translate(0,0)"/>
<path d="M0 0 C2 2 2 2 2 5 C2.9590625 5.2165625 2.9590625 5.2165625 3.9375 5.4375 C6 6 6 6 7 7 C7.1875 9.4375 7.1875 9.4375 7 12 C4.63431778 14.36568222 4.14767774 14.25571704 0.9375 14.265625 C-0.25746094 14.26949219 -0.25746094 14.26949219 -1.4765625 14.2734375 C-2.30929688 14.26570313 -3.14203125 14.25796875 -4 14.25 C-4.83273438 14.25773437 -5.66546875 14.26546875 -6.5234375 14.2734375 C-7.32007813 14.27085938 -8.11671875 14.26828125 -8.9375 14.265625 C-9.66839844 14.26336914 -10.39929688 14.26111328 -11.15234375 14.25878906 C-13 14 -13 14 -15 12 C-15.25 9.5 -15.25 9.5 -15 7 C-14.34 6.34 -13.68 5.68 -13 5 C-12.01 5 -11.02 5 -10 5 C-9.566875 3.7934375 -9.566875 3.7934375 -9.125 2.5625 C-7.0794376 -2.09683658 -4.45893768 -1.02183988 0 0 Z " fill="#518FC4" transform="translate(28,12)"/>
<path d="M0 0 C1.83350768 0.14362477 3.66679783 0.29002705 5.5 0.4375 C6.593125 0.52515625 7.68625 0.6128125 8.8125 0.703125 C11.40297821 0.94439503 13.93296081 1.2791074 16.5 1.6875 C19.90710938 1.99170619 21.25645494 1.94334442 24 0 C23.67 0.99 23.34 1.98 23 3 C23.66 3.33 24.32 3.66 25 4 C25.33 3.01 25.66 2.02 26 1 C28.475 1.495 28.475 1.495 31 2 C30.67 2.99 30.34 3.98 30 5 C22.25 5.125 22.25 5.125 20 4 C19.67 4.99 19.34 5.98 19 7 C17.0625 6.625 17.0625 6.625 15 6 C14.67 5.34 14.34 4.68 14 4 C13.67 4.33 13.34 4.66 13 5 C10.81360547 5.07258946 8.62499611 5.08373783 6.4375 5.0625 C4.64119141 5.04896484 4.64119141 5.04896484 2.80859375 5.03515625 C1.88175781 5.02355469 0.95492188 5.01195312 0 5 C0 3.35 0 1.7 0 0 Z " fill="#7BA9D2" transform="translate(5,29)"/>
<path d="M0 0 C2 2 2 2 2 5 C2.9590625 5.2165625 2.9590625 5.2165625 3.9375 5.4375 C6 6 6 6 7 7 C7.1875 9.4375 7.1875 9.4375 7 12 C5 14 5 14 3.0546875 14.1953125 C1.03645833 14.13020833 -0.98177083 14.06510417 -3 14 C-3 12.35 -3 10.7 -3 9 C-2.34 9 -1.68 9 -1 9 C-1 8.01 -1 7.02 -1 6 C-0.34 6 0.32 6 1 6 C0.34 4.68 -0.32 3.36 -1 2 C-5.14093698 1.79029441 -5.14093698 1.79029441 -9 3 C-8.67 2.01 -8.34 1.02 -8 0 C-5.09288879 -1.4535556 -3.10402897 -0.71133997 0 0 Z " fill="#C8DBEC" transform="translate(28,12)"/>
<path d="M0 0 C2.64 0 5.28 0 8 0 C7.67 0.99 7.34 1.98 7 3 C8.258125 3.185625 9.51625 3.37125 10.8125 3.5625 C11.52019531 3.66691406 12.22789063 3.77132813 12.95703125 3.87890625 C15.2025342 4.13904799 15.2025342 4.13904799 18 3 C18 4.65 18 6.3 18 8 C15.69 8 13.38 8 11 8 C11 7.01 11 6.02 11 5 C10.34 5 9.68 5 9 5 C8.67 5.66 8.34 6.32 8 7 C8 6.34 8 5.68 8 5 C7.34 5 6.68 5 6 5 C5.67 5.66 5.34 6.32 5 7 C4.01 6.67 3.02 6.34 2 6 C2 5.34 2 4.68 2 4 C1.01 4.66 0.02 5.32 -1 6 C-1.66 5.34 -2.32 4.68 -3 4 C-2.34 4 -1.68 4 -1 4 C-0.67 2.68 -0.34 1.36 0 0 Z " fill="#156AB1" transform="translate(25,26)"/>
<path d="M0 0 C1.32 0.66 2.64 1.32 4 2 C3.690625 2.7425 3.38125 3.485 3.0625 4.25 C2.1905075 6.50692176 1.52332993 8.6450153 1 11 C-1.875 11.625 -1.875 11.625 -5 12 C-5.66 11.34 -6.32 10.68 -7 10 C-6.625 7.875 -6.625 7.875 -6 6 C-4.68 5.67 -3.36 5.34 -2 5 C-1.855625 4.360625 -1.71125 3.72125 -1.5625 3.0625 C-1 1 -1 1 0 0 Z " fill="#1168B0" transform="translate(21,13)"/>
<path d="M0 0 C0.33 0.99 0.66 1.98 1 3 C-0.98 3.99 -0.98 3.99 -3 5 C-2.67 6.32 -2.34 7.64 -2 9 C0.64 8.67 3.28 8.34 6 8 C6 8.99 6 9.98 6 11 C4.54207116 11.05399736 3.08357288 11.09279177 1.625 11.125 C0.81289063 11.14820313 0.00078125 11.17140625 -0.8359375 11.1953125 C-3 11 -3 11 -5 9 C-5.25 6.5 -5.25 6.5 -5 4 C-4.34 3.34 -3.68 2.68 -3 2 C-2.01 2 -1.02 2 0 2 C0 1.34 0 0.68 0 0 Z " fill="#D8E5F1" transform="translate(18,15)"/>
<path d="M0 0 C0.66 0.33 1.32 0.66 2 1 C1.67 1.66 1.34 2.32 1 3 C1.66 3.33 2.32 3.66 3 4 C3.33 3.01 3.66 2.02 4 1 C5.65 1.33 7.3 1.66 9 2 C8.67 2.99 8.34 3.98 8 5 C0.25 5.125 0.25 5.125 -2 4 C-2.33 4.66 -2.66 5.32 -3 6 C-2.42655063 3.13275314 -2.1385485 2.1385485 0 0 Z " fill="#A2C2DF" transform="translate(27,29)"/>
<path d="M0 0 C1.32 0.33 2.64 0.66 4 1 C4.625 2.875 4.625 2.875 5 5 C4.34 5.66 3.68 6.32 3 7 C2.01 7 1.02 7 0 7 C0 4.69 0 2.38 0 0 Z " fill="#0E64AE" transform="translate(29,18)"/>
<path d="M0 0 C0 1.65 0 3.3 0 5 C-2.31 5 -4.62 5 -7 5 C-6.34 4.67 -5.68 4.34 -5 4 C-5 3.34 -5 2.68 -5 2 C-2 0 -2 0 0 0 Z " fill="#8AB4D7" transform="translate(43,29)"/>
<path d="M0 0 C2.64 0.33 5.28 0.66 8 1 C8.33 1.99 8.66 2.98 9 4 C8.34 4 7.68 4 7 4 C7 3.34 7 2.68 7 2 C6.34 2 5.68 2 5 2 C4.67 2.66 4.34 3.32 4 4 C4 3.34 4 2.68 4 2 C3.34 2 2.68 2 2 2 C1.67 2.66 1.34 3.32 1 4 C0.01 3.67 -0.98 3.34 -2 3 C-1.34 2.01 -0.68 1.02 0 0 Z " fill="#3E82BD" transform="translate(29,29)"/>
<path d="M0 0 C1.65 0 3.3 0 5 0 C5.33 0.66 5.66 1.32 6 2 C5.34 2 4.68 2 4 2 C3.67 2.99 3.34 3.98 3 5 C2.01 5 1.02 5 0 5 C0 3.35 0 1.7 0 0 Z " fill="#6FA3CF" transform="translate(5,29)"/>
<path d="M0 0 C0.639375 0.2475 1.27875 0.495 1.9375 0.75 C2.2675 1.74 2.5975 2.73 2.9375 3.75 C0.6275 3.75 -1.6825 3.75 -4.0625 3.75 C-4.0625 2.76 -4.0625 1.77 -4.0625 0.75 C-2.0625 -0.25 -2.0625 -0.25 0 0 Z " fill="#95BADA" transform="translate(13.0625,30.25)"/>
</svg>
